# xmcd CD database file
#
# Track frame offsets:
#	150
#	26836
#	47760
#	65729
#	88922
#	108853
#	125017
#	143991
#	161402
#	176575
#	186646
#	225362
#
# Disc length: 3162 seconds
#
# Revision: 0
# Processed by: cddbd v1.5.2PL0 Copyright (c) Steve Scherf et al.
# Submitted via: CDex 1.51
#
DISCID=ab0c580c
DTITLE=Billy Martin and John Medeski - Mago
DYEAR=2007
DGENRE=Jazz
TTITLE0=Introducing Mago
TTITLE1=Crustaceatron
TTITLE2=Mojet
TTITLE3=Apology
TTITLE4=Bamboo Pants
TTITLE5=Thundercloud
TTITLE6=Bonfa
TTITLE7=Safak
TTITLE8=Miss Teardrop
TTITLE9=Syncretism
TTITLE10=L'aventura
TTITLE11=Bamboo Pants (Short and Raw Version) [Bonus Track]
EXTD=YEAR: 2007
EXTT0=
EXTT1=
EXTT2=
EXTT3=
EXTT4=
EXTT5=
EXTT6=
EXTT7=
EXTT8=
EXTT9=
EXTT10=
EXTT11=
PLAYORDER=
